{"title":"Bilar.3.SWEDiSH.1080p.BluRay.x264-Stiffy","magnet":"magnet:?xt=urn:btih:c9c8fa2341f894a1bacedb20a9be1c55c16e8b35&dn=Bilar.3.SWEDiSH.1080p.BluRay.x264-Stiffy&tr=udp%3A%2F%2Ftracker.leechers-paradise.org%3A6969&tr=udp%3A%2F%2Fzer0day.ch%3A1337&tr=udp%3A%2F%2Fopen.demonii.com%3A1337&tr=udp%3A%2F%2Ftracker.coppersurfer.tk%3A6969&tr=udp%3A%2F%2Fexodus.desync.com%3A6969","uploader":"Mr.Stifmeister","categoryP":"video","categoryS":"hd___movies","size":"7861878380","seeders":"4","leechers":"13","description":"Bilar.3.SWEDiSH.1080p.BluRay.x264-Stiffy\r\n\r\n <a href=\"\nhttp://www.imdb.com/title/tt3606752/\" rel=\"nofollow\" target=\"_NEW\">\nhttp://www.imdb.com/title/tt3606752/</a>\r\nLightning McQueen sets out to prove to a new generation of racers that he&apos;s still the best race car in the world. \r\n\r\n\r\n\r\n\r\nMediainfo:\r\n\r\nFormat : Matroska\r\nFormat version : Version 4 / Version 2\r\nFile size : 7.32 GiB\r\nDuration : 1h 42mn\r\nOverall bit rate : 10.2 Mbps\r\nSource : Cars.3.2017.ENG.NORDiC.1080p.BluRay.x264.BiO\r\nEncoded date : UTC 2017-12-03 10:00:38\r\nWriting application : mkvmerge v18.0.0 (&apos;Apricity&apos;) 64-bit\r\nWriting library : libebml v1.3.5 + libmatroska v1.4.8\r\n\r\nVideo\r\nID : 1\r\nFormat : AVC\r\nFormat/Info : Advanced Video Codec\r\nFormat profile : <a href=\"/cdn-cgi/l/email-protection\" class=\"__cf_email__\" data-cfemail=\"8fc7e6e8e7cfc3bba1be\">[email&#xA0;protected]</a>\r\nFormat settings, CABAC : Yes\r\nFormat settings, ReFrames : 5 frames\r\nCodec ID : V_MPEG4/ISO/AVC\r\nDuration : 1h 42mn\r\nBit rate : 9 594 Kbps\r\nWidth : 1 920 pixels\r\nHeight : 808 pixels\r\nDisplay aspect ratio : 2.40:1\r\nFrame rate mode : Constant\r\nFrame rate : 23.976 (24000/1001) fps\r\nColor space : YUV\r\nChroma subsampling : 4:2:0\r\nBit depth : 8 bits\r\nScan type : Progressive\r\nBits/(Pixel*Frame) : 0.258\r\nStream size : 6.86 GiB (94%)\r\nDefault : Yes\r\nForced : No\r\n\r\nAudio\r\nID : 2\r\nFormat : AC-3\r\nFormat/Info : Audio Coding 3\r\nMode extension : CM (complete main)\r\nFormat settings, Endianness : Big\r\nCodec ID : A_AC3\r\nDuration : 1h 42mn\r\nBit rate mode : Constant\r\nBit rate : 640 Kbps\r\nChannel(s) : 6 channels\r\nChannel positions : Front: L C R, Side: L R, LFE\r\nSampling rate : 48.0 KHz\r\nFrame rate : 31.250 fps (1536 spf)\r\nCompression mode : Lossy\r\nStream size : 469 MiB (6%)\r\nLanguage : Swedish\r\n\r\nText\r\nID : 3\r\nFormat : UTF-8\r\nCodec ID : S_TEXT/UTF8\r\nCodec ID/Info : UTF-8 Plain Text\r\nDuration : 1h 40mn\r\nBit rate : 67 bps\r\nCount of elements : 1176\r\nStream size : 49.6 KiB (0%)\r\nLanguage : Swedish","last_updated":"2017-12-03T12:02:00.273Z","parsed":{"xt":"urn:btih:c9c8fa2341f894a1bacedb20a9be1c55c16e8b35","dn":"Bilar.3.SWEDiSH.1080p.BluRay.x264-Stiffy","tr":["udp://exodus.desync.com:6969","udp://open.demonii.com:1337","udp://tracker.coppersurfer.tk:6969","udp://tracker.leechers-paradise.org:6969","udp://zer0day.ch:1337"],"infoHash":"c9c8fa2341f894a1bacedb20a9be1c55c16e8b35","infoHashBuffer":{"type":"Buffer","data":[201,200,250,35,65,248,148,161,186,206,219,32,169,190,28,85,193,110,139,53]},"name":"Bilar.3.SWEDiSH.1080p.BluRay.x264-Stiffy","announce":["udp://exodus.desync.com:6969","udp://open.demonii.com:1337","udp://tracker.coppersurfer.tk:6969","udp://tracker.leechers-paradise.org:6969","udp://zer0day.ch:1337"],"urlList":[]}}